<svg width="48" height="48" viewBox="0 0 48 48" fill="none" xmlns="http://www.w3.org/2000/svg">
<circle opacity="0.4" cx="24" cy="24" r="23.5" fill="black" stroke="white"/>
<path fill-rule="evenodd" clip-rule="evenodd" d="M17.0003 32.9478V16.0687C16.996 15.8801 17.0429 15.6938 17.1359 15.5297C17.229 15.3655 17.3647 15.2296 17.5288 15.1364C17.6929 15.0432 17.8791 14.9961 18.0678 15.0002C18.2564 15.0044 18.4404 15.0595 18.6003 15.1597C19.2393 15.5267 31.3753 22.9477 32.4663 23.5817C32.6278 23.6736 32.7622 23.8067 32.8556 23.9673C32.949 24.1279 32.9983 24.3104 32.9983 24.4963C32.9983 24.6821 32.949 24.8646 32.8556 25.0253C32.7622 25.1859 32.6278 25.3189 32.4663 25.4108C31.6813 25.8758 19.4963 33.3348 18.5663 33.8528C18.4077 33.9461 18.2273 33.9956 18.0434 33.9963C17.8594 33.9971 17.6786 33.949 17.5194 33.8569C17.3601 33.7649 17.2281 33.6323 17.1369 33.4725C17.0457 33.3128 16.9986 33.1317 17.0003 32.9478Z" fill="white" stroke="white" stroke-linejoin="round"/>
</svg>
