<svg width="26" height="26" viewBox="0 0 26 26" fill="none" xmlns="http://www.w3.org/2000/svg">
<path d="M26 22.4055C25.9978 24.0901 24.7325 24.9167 23.5733 24.9167C22.5951 24.9167 21.6667 24.3273 21.6667 23.166C21.6667 21.97 22.9678 20.8715 24.3913 20.8715C24.5657 20.8715 24.7412 20.8878 24.9167 20.9224V16.2511L18.4167 17.5825V23.4867C18.4145 25.1723 17.1383 26 15.9705 26C14.989 26 14.0833 25.4128 14.0833 24.2558C14.0833 23.0577 15.3844 21.9538 16.8112 21.9538C16.9845 21.9538 17.16 21.97 17.3355 22.0047V14.9413L26 13V22.4055ZM11.9167 15.1667C10.1216 15.1667 8.66667 13.7118 8.66667 11.9167C8.66667 10.1216 10.1216 8.66667 11.9167 8.66667C13.7118 8.66667 15.1667 10.1216 15.1667 11.9167C15.1667 13.7118 13.7118 15.1667 11.9167 15.1667ZM11.9167 14.0833C13.1116 14.0833 14.0833 13.1116 14.0833 11.9167C14.0833 10.7218 13.1116 9.75 11.9167 9.75C10.7218 9.75 9.75 10.7218 9.75 11.9167C9.75 13.1116 10.7218 14.0833 11.9167 14.0833ZM9.94717 16.9498C8.54642 16.3995 7.43492 15.288 6.88458 13.8873L5.77417 14.0259C6.42417 15.9174 7.91808 17.4113 9.80958 18.0602L9.94717 16.9498ZM4.67242 14.1635L3.58908 14.2989C4.40917 17.1676 6.66575 19.4242 9.53442 20.2443L9.66983 19.1609C7.293 18.421 5.41233 16.5414 4.67242 14.1635ZM13.8862 6.8835C15.2869 7.43383 16.3984 8.54533 16.9488 9.94717L18.0592 9.8085C17.4092 7.917 15.9153 6.42308 14.0238 5.77308L13.8862 6.8835ZM11.9676 23.8312C12.0564 23.036 12.3771 22.2701 12.9188 21.6157C12.5894 21.6483 12.2547 21.6667 11.9167 21.6667C6.54008 21.6667 2.16667 17.2922 2.16667 11.9167C2.16667 6.54117 6.54008 2.16667 11.9167 2.16667C17.238 2.16667 21.5692 6.45342 21.658 11.7531L23.8008 11.2732C23.4639 4.992 18.2802 0 11.9167 0C5.33542 0 0 5.33542 0 11.9167C0 18.4979 5.33542 23.8333 11.9167 23.8333L11.9676 23.8312ZM14.2978 3.58908L14.1624 4.67242C16.5403 5.41125 18.421 7.29192 19.1598 9.66983L20.2432 9.53442C19.4253 6.66575 17.1687 4.40808 14.2978 3.58908Z" fill="#9F9F9F"/>
</svg>
