<svg width="24" height="26" viewBox="0 0 24 26" fill="none" xmlns="http://www.w3.org/2000/svg">
<path d="M4.33333 21.6667V23.8333H2.16667V21.6667H4.33333ZM6.5 19.5H0V26H6.5V19.5ZM13 18.4167V23.8333H10.8333V18.4167H13ZM15.1667 16.25H8.66667V26H15.1667V16.25ZM21.6667 14.0833V23.8333H19.5V14.0833H21.6667ZM23.8333 11.9167H17.3333V26H23.8333V11.9167ZM23.8333 0L17.3333 1.32275L19.1923 3.17308L11.7715 10.4672L8.52042 7.215L0.0260001 15.6618L1.5535 17.1979L8.51608 10.2754L11.7563 13.5178L20.7263 4.70275L22.5323 6.50108L23.8333 0V0Z" fill="#9F9F9F"/>
</svg>
