<svg width="30" height="20" viewBox="0 0 30 20" fill="none" xmlns="http://www.w3.org/2000/svg">
<path d="M12.6488 15.08C15.515 14.4175 18.1825 13.8375 16.8912 11.3975C12.9575 3.97125 15.8475 0 20.0012 0C24.2362 0 27.055 4.12375 23.1112 11.3988C21.78 13.8538 24.5475 14.4325 27.3525 15.0813C29.8337 15.6538 30 16.8663 30 18.965L29.9963 20H28.335C28.335 17.3888 28.4387 17.0412 26.8025 16.6637C24.4262 16.1162 22.1838 15.5988 21.3638 13.7838C21.065 13.1213 20.87 12.0312 21.6462 10.605C23.3612 7.44 23.795 4.6975 22.8325 3.08375C21.705 1.1875 18.3112 1.1975 17.1925 3.05625C16.2325 4.6475 16.66 7.405 18.3625 10.6187C19.1213 12.0512 18.9212 13.1388 18.62 13.7975C17.795 15.6038 15.53 16.1263 13.1325 16.6788C11.5675 17.0413 11.6675 17.4137 11.6675 20H10.0037C10.0037 17.255 9.78375 15.7425 12.6488 15.08ZM0.0025 20H1.66375C1.66375 17.6025 1.43125 18.2688 3.94375 17.5338C5.21125 17.165 6.33125 16.63 6.83875 15.5188C7.10375 14.94 7.2825 13.9938 6.63625 12.7725C5.44625 10.525 5.1125 8.555 5.74625 7.50375C6.43 6.3675 8.58375 6.36875 9.27 7.5225C10.4388 9.48125 8.27875 12.5 7.995 13.75H9.74C10.29 12.5 11.2475 10.99 11.2475 8.875C11.2475 6.3625 9.6075 5 7.5 5C4.38375 5 2.21625 7.97875 5.1675 13.5487C6.135 15.3787 4.135 15.8138 1.98625 16.31C0.12375 16.7413 0 17.65 0 19.2275L0.0025 20Z" fill="#9F9F9F"/>
</svg>
