<svg width="130" height="45" viewBox="0 0 130 45" fill="none" xmlns="http://www.w3.org/2000/svg">
<path fill-rule="evenodd" clip-rule="evenodd" d="M92.1332 9.33681H95.6779C95.6779 9.19935 95.6758 9.08918 95.6784 8.98424C95.6967 8.05665 95.7004 7.128 95.7397 6.20093C95.7696 5.50734 95.8833 4.82213 96.0715 4.15162C96.604 2.25026 97.7849 0.991604 99.7131 0.471143C100.593 0.233997 101.487 0.0960124 102.397 0.0493179C102.456 0.0461699 103.067 0 103.699 0C104.382 0 105.09 0.0461699 105.159 0.0514165C105.537 0.0818466 105.915 0.105456 106.313 0.133788V5.4066C106.247 5.4066 106.183 5.40922 106.119 5.40608C105.534 5.38194 104.949 5.34941 104.363 5.33525C104.15 5.33 103.936 5.35728 103.723 5.38456C102.735 5.50943 102.292 6.32213 102.25 7.00051C102.204 7.75917 102.24 8.54301 102.24 9.33681C102.592 9.33681 102.939 9.32632 103.286 9.32947C103.637 9.33262 103.989 9.32999 104.34 9.32999H105.395C105.745 9.32999 106.096 9.33681 106.441 9.33681H109.555C111.348 15.3971 113.145 21.4617 114.941 27.533C115.304 26.5451 115.563 25.5335 115.85 24.5304C116.139 23.5167 116.416 22.4994 116.7 21.4842C116.984 20.469 117.271 19.4548 117.555 18.4396C117.837 17.4333 118.115 16.427 118.396 15.4207C118.68 14.4055 118.967 13.3914 119.251 12.3762C119.535 11.362 119.817 10.3599 120.102 9.33681H127.005C126.968 9.45119 126.94 9.53723 126.907 9.63325C124.997 15.1185 123.088 20.6044 121.175 26.0886C120.075 29.2408 118.977 32.394 117.861 35.5403C117.276 37.1872 116.64 38.8158 115.869 40.3871C115.59 40.9553 115.274 41.5078 114.95 42.0524C114.464 42.8703 113.722 43.3714 112.842 43.6883C112.13 43.9448 111.393 44.0807 110.644 44.1615C110.355 44.1925 110.066 44.2371 109.777 44.2754H107.082C106.774 44.2413 106.466 44.2061 106.157 44.1725C106.07 44.1631 105.983 44.1578 105.878 44.1489V38.9732C105.984 38.9732 106.087 38.9679 106.19 38.9737C107.049 39.0199 107.906 39.0403 108.759 38.8871C109.652 38.7271 110.349 38.2932 110.723 37.4422C110.97 36.8808 111.18 36.3021 111.395 35.7271C111.479 35.5026 111.455 35.2796 111.372 35.044C108.892 28.0047 106.416 20.9638 103.94 13.9229H102.241V34.1552H95.7895C95.7455 33.5613 95.7759 32.7638 95.7706 32.1631C95.7649 31.5577 95.7691 30.9512 95.7691 30.3457V13.927H92.4749V34.1552H85.9264V28.1143C85.8137 28.6038 85.6471 29.0828 85.4185 29.5487C84.5647 31.2901 83.2004 32.4837 81.4158 33.2077C80.4084 33.6164 79.3559 33.8499 78.2804 33.9863C76.8029 34.1741 75.3212 34.2009 73.8374 34.0897C72.2304 33.969 70.6527 33.6956 69.1904 32.9837C67.5819 32.1998 66.3842 31.0739 65.6311 29.5897C65.6305 31.2644 65.63 32.8226 65.6295 34.1552C65.6295 34.1715 61.4364 34.1552 59.3247 34.1552V30.193C59.3043 30.1846 59.2838 30.1768 59.2629 30.1684C59.201 30.2602 59.1381 30.3515 59.0768 30.4438C57.8315 32.3132 56.1076 33.4842 53.9167 33.9527C52.9476 34.1594 51.9607 34.1893 50.9732 34.1343C50.0046 34.0807 49.0523 33.9333 48.1345 33.6075C45.9384 32.8279 44.5621 31.2712 43.8718 29.0739C43.5751 28.1285 43.4043 27.1553 43.3445 26.1694C43.3361 26.023 43.3277 25.8767 43.3194 25.7303C43.3115 28.5855 43.2973 30.9716 43.2858 33.8656C43.2858 33.9716 43.2858 34.0209 43.2858 34.1552H36.6336C36.6336 33.8698 36.6309 33.4984 36.6309 33.0099C36.6309 28.3677 36.6315 23.7261 36.6304 19.0844C36.6304 18.4575 36.5895 17.8347 36.4134 17.2282C36.0235 15.8793 35.0276 15.0566 33.6329 14.9055C33.0144 14.8379 32.4033 14.8552 31.8 14.9937C30.5547 15.278 29.7119 16.0451 29.2182 17.2088C28.9131 17.9281 28.7889 18.6878 28.748 19.4627C28.7365 19.6873 28.7391 19.9123 28.7391 20.1369C28.7386 24.8761 28.7386 27.0661 28.7386 31.8058V34.1552H22.1854V31.8279C22.1854 27.2644 22.188 25.2507 22.1828 20.6873C22.1817 19.9548 22.1681 19.2208 22.1162 18.491C22.0842 18.0461 22.0046 17.597 21.8809 17.1684C21.5449 16.0036 20.7597 15.2896 19.5773 15.043C18.6344 14.8468 17.6894 14.8956 16.7674 15.1673C15.5174 15.5356 14.7323 16.3657 14.4618 17.6469C14.3648 18.1038 14.3192 18.5729 14.2768 19.0388C14.2469 19.3688 14.2563 19.7025 14.2563 20.0351C14.2553 24.8037 14.2553 29.0624 14.2553 33.831V34.1552H7.67693V9.33681H13.9691V13.4333C13.9864 13.4402 14.0032 13.447 14.02 13.4538C14.0692 13.3898 14.1201 13.3274 14.1678 13.2623C14.5195 12.7817 14.8528 12.287 15.2249 11.8226C16.1925 10.6165 17.4619 9.8961 18.9615 9.57343C20.5118 9.24028 22.0601 9.26021 23.6052 9.62223C25.1467 9.98372 26.337 10.8363 27.1761 12.1731C27.4445 12.6012 27.6715 13.0551 27.9346 13.5283C27.9906 13.4438 28.0494 13.3609 28.1028 13.2754C28.6531 12.3992 29.3136 11.6217 30.1354 10.9869C31.1134 10.2303 32.2345 9.79641 33.4337 9.55402C35.0192 9.23241 36.5859 9.27753 38.1488 9.74395C40.2857 10.3804 42.4498 12.3651 43.0337 15.0582C43.1212 15.4627 43.1847 15.8699 43.2287 16.2786C43.2282 12.6967 43.2308 9.43178 43.2308 9.33681H49.8841C49.8888 9.46063 49.8972 16.9207 49.8972 20.8389C49.8972 21.8746 49.8956 22.9102 49.8998 23.9459C49.9024 24.671 49.958 25.3903 50.1257 26.0975C50.4868 27.6243 51.4214 28.5036 52.9644 28.7434C53.8832 28.8856 54.7968 28.8284 55.6878 28.5582C57.0752 28.1374 57.9845 27.2019 58.505 25.8688C58.777 25.1726 58.9159 24.4428 58.973 23.7004C59.0171 23.1264 59.0375 22.5493 59.038 21.9737C59.0433 17.6936 59.0412 9.48057 59.0412 9.33681H65.6237C65.6263 9.37511 65.6284 12.0152 65.6295 15.6951C66.1594 13.1537 67.9891 11.3604 69.8472 10.4333C70.8236 9.94594 71.8609 9.65528 72.9364 9.50523C74.8306 9.24133 76.718 9.30271 78.5949 9.6642C79.6888 9.87564 80.7307 10.2345 81.7219 10.7487C83.2607 11.5472 84.2953 12.7765 84.8881 14.394C85.1701 15.1637 85.3378 15.9601 85.439 16.7717C85.4526 16.8782 85.4537 16.9869 85.4615 17.1117H79.3816C79.3627 16.9947 79.3454 16.8882 79.3287 16.7822C79.1064 15.3693 78.2752 14.5183 76.903 14.1988C75.7153 13.9228 74.5219 13.9522 73.3363 14.234C72.8551 14.3489 72.4416 14.5897 72.0836 14.9386C71.2906 15.7135 71.4295 17.1768 72.5643 17.6437C73.1544 17.8866 73.7687 18.0839 74.3872 18.2397C75.9313 18.6285 77.4843 18.979 79.032 19.351C80.1652 19.6233 81.268 19.9847 82.3099 20.5147C83.2235 20.979 84.06 21.5482 84.7298 22.3389C85.3205 23.0356 85.7147 23.81 85.9264 24.6547V9.33681H92.1332ZM6.59932 34.1364H6.26283C4.2921 34.1364 2.32085 34.1364 0.349071 34.1374C0.232714 34.1374 0.116357 34.1489 0 34.1552V9.3258C0.116881 9.33052 0.233238 9.33944 0.350119 9.33944C2.31194 9.34049 4.27323 9.33996 6.23453 9.33996H6.57469C6.64387 9.56084 6.66694 33.6993 6.59932 34.1364ZM123.769 34.1385H123.41V27.4706H130V34.1552C129.884 34.1495 129.767 34.1395 129.65 34.1395C127.69 34.1384 125.729 34.1385 123.769 34.1385ZM65.6305 18.7628C65.6311 21.0414 65.6316 23.5136 65.6311 25.9139H70.9541C70.9824 26.0739 71.0071 26.2256 71.0369 26.3761C71.0689 26.5377 71.1056 26.6988 71.1397 26.8599C71.3823 27.9874 72.0836 28.6862 73.1597 29.0472C73.764 29.2497 74.3851 29.3604 75.0156 29.4008C75.8851 29.4559 76.7552 29.4669 77.6179 29.3069C78.1064 29.2161 78.5802 29.0792 79.0147 28.8315C79.7883 28.3913 80.1023 27.6694 79.8937 26.8053C79.7595 26.2481 79.4078 25.8604 78.8963 25.6353C78.4958 25.459 78.0818 25.3016 77.6593 25.1873C76.0518 24.7534 74.4412 24.3326 72.8279 23.9213C71.4955 23.5818 70.1747 23.2093 68.9373 22.5986C68.4708 22.3683 68.0164 22.1044 67.5887 21.809C66.5116 21.064 65.8826 20.0257 65.6305 18.7628ZM0 2.2555H6.63444C6.70153 2.47429 6.7183 6.21615 6.65488 6.59967C6.57521 6.60492 6.4903 6.61541 6.40539 6.61541C4.35709 6.61646 2.30932 6.61646 0.261017 6.61541C0.174011 6.61541 0.0870056 6.60177 0 6.59495V2.2555H0ZM92.4152 6.60177H85.8116V2.27754H92.4152V6.60177Z" fill="white"/>
</svg>
