<?xml version="1.0" encoding="UTF-8"?>
<svg width="14px" height="16px" viewBox="0 0 14 16" version="1.1" xmlns="http://www.w3.org/2000/svg" xmlns:xlink="http://www.w3.org/1999/xlink">
    <!-- Generator: Sketch 51.2 (57519) - http://www.bohemiancoding.com/sketch -->
    <title>icon-imu</title>
    <desc>Created with Sketch.</desc>
    <defs></defs>
    <g id="Page-1" stroke="none" stroke-width="1" fill="none" fill-rule="evenodd">
        <g id="icon-imu" fill="#FFFFFF">
            <path d="M14,8.54134573 L13.3532141,8.54134573 C13.3462049,7.8997481 13.1949875,7.42584324 12.8993536,7.11963115 C12.6037891,6.81341906 12.149998,6.66027664 11.5379803,6.66027664 C11.5449201,6.74779699 11.5518599,6.87169321 11.558869,7.0321108 C11.5727485,7.58626083 11.5796883,7.96173258 11.5796883,8.1585988 C11.5796883,10.7177141 11.1589305,12.6644053 10.3174148,13.9985995 C9.47589919,15.3328665 8.24485466,16 6.62442003,16 C5.19170599,16 4.13283698,15.5734565 3.44781298,14.7204423 C2.76278899,13.8673554 2.4202423,12.5440739 2.4202423,10.7505252 L2.4202423,8.78193574 C2.4202423,8.11116466 2.34550105,7.61907187 2.19594916,7.30551185 C2.04639727,6.99202459 1.81516437,6.83524458 1.50218107,6.83524458 C1.16143871,6.83524458 0.900642424,6.98293062 0.719792204,7.27822995 C0.539011381,7.57345653 0.448586271,8.00174604 0.448586271,8.563244 L0.0208192886,8.563244 C0.0208192886,8.49034675 0.0173494071,8.41919555 0.0104096443,8.34993589 L-1.42108547e-14,8.2460464 C-1.42108547e-14,7.5388267 0.182515763,6.96285114 0.547686085,6.51811973 C0.912787009,6.07338832 1.38052703,5.85098624 1.95076734,5.85098624 C2.80623191,5.85098624 3.4356684,6.14628557 3.83900742,6.73681147 C4.24241583,7.32741013 4.44408534,8.24968398 4.44408534,9.50377854 L4.44408534,12.1394287 C4.44408534,13.2841047 4.63014038,14.1189309 5.00218107,14.6438347 C5.37429115,15.1688113 5.96021533,15.4312996 6.760023,15.4312996 C7.65719554,15.4312996 8.30051156,15.0430236 8.68997105,14.2665442 C9.07943054,13.4900648 9.27416029,12.1467039 9.27416029,10.2364614 L9.27416029,6.66027664 L8.98206567,6.66027664 C7.26426617,6.66027664 5.89761867,6.33034748 4.88226197,5.67056192 C3.86683586,5.0107036 3.35912281,4.13760992 3.35912281,3.05128089 C3.35912281,2.17636841 3.6669013,1.44906923 4.28238886,0.86945609 C4.89787643,0.289842947 5.67853036,0 6.62442003,0 C8.04318515,0 9.16985565,0.519520202 10.0044315,1.55848786 C10.8390074,2.59738276 11.3363108,4.09388613 11.4962724,6.04785246 C12.3308482,6.06240281 12.9515406,6.27025454 13.3584189,6.67126215 C13.7652278,7.07219701 13.9791113,7.69553395 14,8.54134573 Z M9.27416029,6.04785246 L9.27416029,5.64320726 C9.27416029,3.94438129 9.07075584,2.66853396 8.66387754,1.81544701 C8.25706864,0.962432818 7.64331602,0.535889345 6.82261966,0.535889345 C6.25931911,0.535889345 5.82634731,0.714567627 5.52384304,1.07177869 C5.22126938,1.4290625 5.07005195,1.93941599 5.07005195,2.60291189 C5.07005195,3.7402399 5.40732442,4.59878323 6.08193877,5.17839637 C6.75655312,5.75800951 7.75109053,6.04785246 9.06555102,6.04785246 L9.27416029,6.04785246 Z" id="Combined-Shape"></path>
        </g>
    </g>
</svg>