<?xml version="1.0" encoding="UTF-8" standalone="no"?><!DOCTYPE svg PUBLIC "-//W3C//DTD SVG 1.1//EN" "http://www.w3.org/Graphics/SVG/1.1/DTD/svg11.dtd"><svg width="100%" height="100%" viewBox="0 0 100 100" version="1.1" xmlns="http://www.w3.org/2000/svg" xmlns:xlink="http://www.w3.org/1999/xlink" xml:space="preserve" style="fill-rule:evenodd;clip-rule:evenodd;stroke-linejoin:round;stroke-miterlimit:1.41421;"><path d="M50,0c27.596,0 50,22.404 50,50c0,27.596 -22.404,50 -50,50c-27.596,0 -50,-22.404 -50,-50c0,-27.596 22.404,-50 50,-50Zm32.392,52.109c-0.091,-3.509 -1.021,-6.095 -2.79,-7.758c-1.769,-1.663 -4.469,-2.525 -8.098,-2.586c-0.696,-8.105 -2.858,-14.313 -6.488,-18.623c-3.629,-4.31 -8.529,-6.465 -14.698,-6.465c-4.114,0 -7.509,1.202 -10.185,3.607c-2.677,2.404 -4.015,5.421 -4.015,9.051c0,4.506 2.208,8.128 6.623,10.865c4.416,2.737 10.359,4.106 17.83,4.106l1.27,0l0,14.835c0,7.924 -0.847,13.496 -2.541,16.717c-1.693,3.221 -4.491,4.832 -8.393,4.832c-3.478,0 -6.026,-1.089 -7.644,-3.266c-1.618,-2.178 -2.427,-5.641 -2.427,-10.39l0,-10.933c0,-5.202 -0.877,-9.028 -2.631,-11.478c-1.755,-2.45 -4.492,-3.675 -8.212,-3.675c-2.48,0 -4.514,0.923 -6.102,2.768c-1.588,1.845 -2.381,4.234 -2.381,7.168c0,0 0.015,0.144 0.045,0.431c0.03,0.287 0.045,0.582 0.045,0.884l1.86,0c0,-2.329 0.394,-4.105 1.18,-5.33c0.786,-1.225 1.92,-1.837 3.402,-1.837c1.361,0 2.367,0.65 3.017,1.95c0.651,1.301 0.976,3.342 0.976,6.125l0,8.166c0,7.44 1.489,12.929 4.468,16.468c2.979,3.539 7.584,5.308 13.815,5.308c7.047,0 12.4,-2.767 16.059,-8.302c3.66,-5.535 5.49,-13.61 5.49,-24.226c0,-0.817 -0.03,-2.374 -0.091,-4.673c-0.03,-0.665 -0.06,-1.179 -0.091,-1.542c2.662,0 4.635,0.635 5.921,1.905c1.285,1.27 1.943,3.236 1.973,5.898l2.813,0Zm-20.551,-10.344l0,-1.678c0,-7.047 -0.885,-12.34 -2.654,-15.879c-1.77,-3.539 -4.439,-5.308 -8.007,-5.308c-2.45,0 -4.333,0.741 -5.649,2.223c-1.315,1.482 -1.973,3.599 -1.973,6.351c0,4.719 1.467,8.28 4.4,10.684c2.934,2.405 7.259,3.607 12.975,3.607l0.908,0Z" style="fill:#fff;"/></svg>