<svg width="14" height="16" viewBox="0 0 14 16" fill="none" xmlns="http://www.w3.org/2000/svg">
<path d="M12.3059 6.55715C13.2372 6.59638 13.9999 7.11815 13.9999 8.19569C13.9999 8.84954 13.356 12.3627 13.0295 13.5899C12.5632 15.3481 11.4158 16 9.75831 16C8.26737 16 7.09448 15.5966 6.27358 15.2428C4.58541 14.5151 3.22705 14.0385 0.938721 14.0385L0.93872 7.54708C2.95407 7.28488 5.1379 6.922 6.42443 2.48369C6.73986 1.39831 7.05921 0.307692 8.27456 0.307692C10.5263 0.307692 10.237 3.92411 9.70868 6.07069C10.4316 6.37538 11.5157 6.52315 12.3059 6.55715ZM12.1707 7.85961C10.3755 7.75892 8.86623 7.19727 8.17399 6.84223C8.45546 5.69996 8.77545 4.57862 8.77545 3.2245C8.77545 1.58661 8.26541 0.827499 7.67896 2.84919C6.37741 7.33392 4.37643 8.31796 2.24484 8.80769L2.24484 12.7308C3.89121 12.7778 5.32729 13.4114 6.7895 14.0417C7.91995 14.5288 9.95619 15.0192 10.9795 14.4432C11.8253 13.8966 11.707 13.3094 11.1702 13.3572L10.6667 13.3781C10.1345 13.4395 10.0659 12.6798 10.5955 12.632C10.5955 12.632 11.4582 12.5915 11.7351 12.5568C12.3725 12.4764 12.4065 11.5061 11.709 11.5427C11.4106 11.5584 10.9626 11.5695 10.9626 11.5695C10.4421 11.5898 10.3911 10.8647 10.8705 10.8032C10.8705 10.8032 11.3368 10.8 12.0205 10.7385C12.7043 10.677 12.7245 9.68646 12.0179 9.71654C11.451 9.74073 11.3198 9.73419 11.3198 9.73419C10.83 9.73092 10.749 9.06204 11.2277 9.00515L12.1381 8.89596C12.8401 8.81096 12.8597 7.89819 12.1707 7.85961Z" fill="white"/>
</svg>
