<svg width="26" height="29" viewBox="0 0 26 29" fill="none" xmlns="http://www.w3.org/2000/svg">
<path d="M18.9091 14.1818C14.9937 14.1818 11.8182 17.3574 11.8182 21.2727C11.8182 25.1881 14.9937 28.3636 18.9091 28.3636C22.8245 28.3636 26 25.1881 26 21.2727C26 17.3574 22.8245 14.1818 18.9091 14.1818ZM19.5 24.1965V24.8182H18.9091V24.2285C18.2969 24.2178 17.6646 24.0725 17.1364 23.7995L17.4058 22.828C17.9707 23.0478 18.7224 23.2806 19.3109 23.1471C19.9893 22.9935 20.1287 22.295 19.3783 21.9594C18.8287 21.7029 17.1458 21.4843 17.1458 20.0425C17.1458 19.2376 17.7604 18.5155 18.9091 18.3584V17.7273H19.5V18.3288C19.9278 18.3406 20.4076 18.4151 20.943 18.577L20.7291 19.5508C20.2753 19.3913 19.7742 19.2471 19.2849 19.2766C18.4056 19.3275 18.3276 20.0897 18.9422 20.4088C19.9538 20.8839 21.2727 21.2361 21.2727 22.5042C21.2739 23.5182 20.4785 24.0583 19.5 24.1965ZM21.4193 12.1668C22.7571 11.9033 23.9744 11.427 24.8182 10.7522V11.5227C24.8182 12.1125 24.362 12.6514 23.6281 13.0922C22.9415 12.6939 22.2005 12.3831 21.4193 12.1668ZM18.9091 5.31818C22.0681 5.31818 24.8182 4.12809 24.8182 2.65909C24.8182 1.19009 22.0681 0 18.9091 0C15.7513 0 13 1.19009 13 2.65909C13 4.12809 15.7513 5.31818 18.9091 5.31818ZM19.019 2.94391C18.6656 2.83755 17.5843 2.74773 17.5843 2.14618C17.5843 1.81055 17.979 1.51155 18.7165 1.44536V1.18182H19.0958V1.43118C19.3724 1.43709 19.6796 1.46664 20.0224 1.53755L19.8853 1.94173C19.6241 1.88145 19.3334 1.82473 19.0485 1.82473L18.9635 1.82591C18.3938 1.84955 18.3477 2.16509 18.7413 2.29745C19.3877 2.49718 20.2386 2.64255 20.2386 3.172C20.2386 3.59391 19.7257 3.81964 19.0958 3.87636V4.13636H18.7165V3.89055C18.3288 3.887 17.9175 3.82436 17.5795 3.71091L17.7533 3.30555C18.0416 3.38 18.4056 3.45445 18.7318 3.45445L18.9776 3.43791C19.4137 3.37527 19.5012 3.08336 19.019 2.94391ZM5.90909 18.3182C7.61682 18.3182 9.18864 17.9625 10.2877 17.4105C10.6553 16.5951 11.1315 15.8399 11.7035 15.1663C11.1705 13.9336 8.70291 13 5.90909 13C2.75127 13 0 14.1901 0 15.6591C0 17.1281 2.75127 18.3182 5.90909 18.3182ZM6.019 15.9439C5.66564 15.8375 4.58427 15.7477 4.58427 15.1462C4.58427 14.8105 4.98018 14.5115 5.71645 14.4454V14.1818H6.09582V14.4312C6.37236 14.4371 6.67964 14.4666 7.02236 14.5375L6.88409 14.9417C6.62409 14.8815 6.33336 14.8247 6.04855 14.8247L5.96345 14.8259C5.39382 14.8495 5.34891 15.1651 5.74127 15.2975C6.38773 15.4972 7.23864 15.6425 7.23864 16.172C7.23864 16.5939 6.72573 16.8196 6.09582 16.8764V17.1364H5.71645V16.8905C5.32764 16.887 4.91755 16.8244 4.57955 16.7109L4.75327 16.3055C5.04164 16.38 5.40564 16.4545 5.73182 16.4545L5.97764 16.4379C6.41255 16.3753 6.50118 16.0834 6.019 15.9439ZM10.7498 26.026C9.66373 26.7233 7.86618 27.1818 5.90909 27.1818C2.75127 27.1818 0 25.9917 0 24.5227V23.7522C1.35436 24.8371 3.67427 25.4091 5.90909 25.4091C7.36982 25.4091 8.86245 25.1597 10.1034 24.687C10.2842 25.1526 10.5005 25.6005 10.7498 26.026ZM0 21.5682V20.7988C1.35436 21.8825 3.67427 22.4545 5.90909 22.4545C7.137 22.4545 8.38382 22.2761 9.48764 21.9405C9.52664 22.4947 9.61409 23.0348 9.74527 23.5595C8.69582 23.9696 7.35327 24.2273 5.90909 24.2273C2.75127 24.2273 0 23.0372 0 21.5682ZM0 18.6136V17.8431C1.35436 18.928 3.67427 19.5 5.90909 19.5C7.241 19.5 8.59773 19.292 9.76891 18.8985C9.61764 19.4811 9.52073 20.0826 9.48409 20.7019C8.47482 21.0541 7.23509 21.2727 5.90909 21.2727C2.75127 21.2727 0 20.0826 0 18.6136ZM13 5.61364V4.84309C14.3544 5.928 16.6743 6.5 18.9091 6.5C21.1451 6.5 23.4638 5.928 24.8182 4.84309V5.61364C24.8182 7.08264 22.0681 8.27273 18.9091 8.27273C15.7513 8.27273 13 7.08264 13 5.61364ZM13 11.5227V10.7522C13.8426 11.427 15.0611 11.9033 16.3989 12.1668C15.6177 12.3831 14.8779 12.6939 14.1913 13.0922C13.4562 12.6514 13 12.1125 13 11.5227ZM13 8.56818V7.79882C14.3544 8.88255 16.6743 9.45455 18.9091 9.45455C21.1451 9.45455 23.4638 8.88255 24.8182 7.79882V8.56818C24.8182 10.0372 22.0681 11.2273 18.9091 11.2273C15.7513 11.2273 13 10.0372 13 8.56818Z" fill="#9F9F9F"/>
</svg>
