<svg width="19" height="19" viewBox="0 0 19 19" fill="none" xmlns="http://www.w3.org/2000/svg">
<path fill-rule="evenodd" clip-rule="evenodd" d="M12.5503 13.11C11.2179 14.311 9.45408 15.0417 7.52083 15.0417C3.37013 15.0417 0 11.6715 0 7.52083C0 3.37013 3.37013 0 7.52083 0C11.6715 0 15.0417 3.37013 15.0417 7.52083C15.0417 9.45408 14.311 11.2179 13.11 12.5503L19 18.4403L18.4403 19L12.5503 13.11ZM7.52083 0.791667C11.2345 0.791667 14.25 3.80713 14.25 7.52083C14.25 11.2345 11.2345 14.25 7.52083 14.25C3.80713 14.25 0.791667 11.2345 0.791667 7.52083C0.791667 3.80713 3.80713 0.791667 7.52083 0.791667Z" fill="white"/>
</svg>
