<svg width="90" height="90" viewBox="0 0 90 90" fill="none"
    xmlns="http://www.w3.org/2000/svg">
    <rect width="90" height="90" rx="3" fill="url(#paint0_linear)"/>
    <path d="M53 52.5556H47.375V62H43.625V52.5556H38L45.5 45L53 52.5556ZM59.5231 41.396C59.1256 33.933 53.0112 28 45.5 28C37.9887 28 31.8744 33.933 31.4769 41.396C26.6581 42.2706 23 46.5073 23 51.6111C23 57.3477 27.6181 62 33.3125 62H39.875V58.2222H33.3125C29.6937 58.2222 26.75 55.2567 26.75 51.6111C26.75 46.3279 31.3981 44.371 35.0619 44.5844C34.7487 36.6171 39.2019 31.7778 45.5 31.7778C51.9744 31.7778 56.5456 37.061 55.9381 44.5844C59.21 44.4976 64.25 46.003 64.25 51.6111C64.25 55.2567 61.3063 58.2222 57.6875 58.2222H51.125V62H57.6875C63.3819 62 68 57.3477 68 51.6111C68 46.5073 64.3419 42.2706 59.5231 41.396Z" fill="white"/>
    <defs>
        <linearGradient id="paint0_linear" x1="76" y1="5.36442e-07" x2="15" y2="90" gradientUnits="userSpaceOnUse">
            <stop stop-color="#E41C69"/>
            <stop offset="1" stop-color="#9B19BB"/>
        </linearGradient>
    </defs>
</svg>
