<svg width="14" height="16" viewBox="0 0 14 16" fill="none" xmlns="http://www.w3.org/2000/svg">
<path d="M11.3607 13.5398C10.8317 13.4993 10.882 13.0089 11.3809 12.9167C12.2096 12.7637 12.574 12.3191 12.574 11.9078C12.574 11.562 12.3154 11.2396 11.857 11.1357C11.3104 11.0121 11.4233 10.6407 11.8772 10.6047C12.6165 10.5459 12.9796 10.1052 12.9796 9.68281C12.9796 9.31338 12.702 8.95835 12.1561 8.88511C11.5964 8.80992 11.7786 8.40519 12.1763 8.28227C12.5166 8.17765 13.0606 7.95535 13.0606 7.29496C13.0606 6.85558 12.734 6.27365 11.5775 6.32073C10.7755 6.35342 9.18269 6.19127 8.32588 5.74208C8.9182 3.35096 8.77584 0 7.22416 0C6.18318 0 5.98596 1.1815 5.67314 2.26819C4.55118 6.171 2.30596 6.88565 0 7.23938V13.7308C4.36767 13.7308 5.55102 15.6923 8.81959 15.6923C10.9087 15.6923 11.9882 14.5579 11.9882 13.9492C11.9876 13.7308 11.81 13.5752 11.3607 13.5398Z" fill="#E41C69"/>
</svg>
