<?xml version="1.0" standalone="no"?>
<!DOCTYPE svg PUBLIC "-//W3C//DTD SVG 20010904//EN"
 "http://www.w3.org/TR/2001/REC-SVG-20010904/DTD/svg10.dtd">
<svg version="1.0" xmlns="http://www.w3.org/2000/svg"
 width="512.000000pt" height="512.000000pt" viewBox="0 0 512.000000 512.000000"
 preserveAspectRatio="xMidYMid meet">
<metadata>
Created by potrace 1.11, written by Peter Selinger 2001-2013
</metadata>
<g transform="translate(0.000000,512.000000) scale(0.100000,-0.100000)"
fill="#000000" stroke="none">
<path d="M0 2560 l0 -2560 2560 0 2560 0 0 2560 0 2560 -2560 0 -2560 0 0
-2560z m2880 2205 c552 -83 1036 -357 1398 -790 206 -246 368 -568 446 -886
45 -186 60 -318 60 -529 0 -362 -67 -653 -223 -975 -290 -594 -833 -1033
-1472 -1189 -186 -45 -318 -60 -529 -60 -362 0 -653 67 -975 223 -594 290
-1033 833 -1189 1472 -45 186 -60 318 -60 529 0 362 67 653 223 975 219 449
577 807 1026 1026 259 126 512 195 815 223 87 8 376 -4 480 -19z"/>
<path d="M2385 4022 c-297 -77 -476 -330 -436 -616 38 -279 299 -484 711 -561
70 -13 313 -34 408 -35 l22 0 0 -347 c0 -536 -19 -774 -75 -950 -28 -89 -85
-184 -136 -227 -85 -72 -210 -104 -347 -87 -157 19 -253 85 -312 214 -56 120
-62 182 -71 652 -7 450 -13 504 -58 626 -42 112 -127 200 -231 240 -38 15 -86
23 -155 26 -85 4 -108 2 -156 -16 -82 -31 -134 -73 -180 -143 -50 -79 -70
-148 -72 -251 l-2 -82 41 -3 41 -3 6 75 c11 147 77 235 181 244 90 7 137 -31
171 -138 15 -46 19 -114 25 -430 8 -411 17 -494 72 -650 43 -122 82 -185 167
-271 131 -131 280 -187 526 -196 107 -4 161 -1 230 12 413 77 660 402 751 985
11 72 18 201 21 414 l5 309 62 -5 c165 -14 257 -109 281 -290 l6 -48 60 0 59
0 0 38 c-1 97 -51 229 -111 290 -68 69 -199 122 -301 122 -27 0 -53 6 -61 14
-8 8 -17 46 -21 87 -15 166 -77 392 -144 524 -127 255 -299 401 -557 475 -22
7 -110 14 -195 16 -127 3 -168 0 -225 -14z m375 -105 c40 -15 72 -37 115 -81
132 -133 193 -348 210 -748 l7 -158 -88 0 c-244 0 -466 78 -582 203 -112 123
-168 319 -142 507 13 93 30 137 78 198 80 101 251 134 402 79z"/>
</g>
</svg>
