<svg width="20" height="20" viewBox="0 0 20 20" fill="none" xmlns="http://www.w3.org/2000/svg">
<path d="M10 1.66667C14.595 1.66667 18.3333 5.405 18.3333 10C18.3333 14.595 14.595 18.3333 10 18.3333C5.405 18.3333 1.66667 14.595 1.66667 10C1.66667 5.405 5.405 1.66667 10 1.66667ZM10 0C4.4775 0 0 4.4775 0 10C0 15.5225 4.4775 20 10 20C15.5225 20 20 15.5225 20 10C20 4.4775 15.5225 0 10 0ZM8.75 5H11.25L10.4167 11.6667H9.58333L8.75 5ZM10 15.2083C9.425 15.2083 8.95833 14.7417 8.95833 14.1667C8.95833 13.5917 9.425 13.125 10 13.125C10.575 13.125 11.0417 13.5917 11.0417 14.1667C11.0417 14.7417 10.575 15.2083 10 15.2083Z" fill="white"/>
</svg>
