<svg width="22" height="20" viewBox="0 0 22 20" fill="none" xmlns="http://www.w3.org/2000/svg">
<path d="M20.0347 8.45727C20.1135 8.96091 20.1667 9.47364 20.1667 10C20.1667 15.5227 15.6521 20 10.0833 20C4.51458 20 0 15.5227 0 10C0 4.47727 4.51458 0 10.0833 0C12.2347 0 14.2248 0.673636 15.862 1.81182L14.5585 3.13636C13.2678 2.30636 11.7333 1.81818 10.0833 1.81818C5.53483 1.81818 1.83333 5.48909 1.83333 10C1.83333 14.5109 5.53483 18.1818 10.0833 18.1818C14.5695 18.1818 18.2224 14.6109 18.3242 10.1864L20.0347 8.45727ZM19.162 1.06091L10.5417 9.82364L7.01892 6.53818L4.18183 9.35455L10.5417 15.4545L22 3.87545L19.162 1.06091Z" fill="#131314"/>
</svg>
